<svg xmlns="http://www.w3.org/2000/svg" xmlns:xlink="http://www.w3.org/1999/xlink" version="1.1" x="0px" y="0px" viewBox="0 0 512 640" style="enable-background:new 0 0 512 512;" xml:space="preserve"><g><path d="M254.35,226.49c15.96,0,28.91,12.95,28.91,28.91s-12.95,28.91-28.91,28.91c-15.96,0-28.91-12.95-28.91-28.91   S238.39,226.49,254.35,226.49L254.35,226.49z M242.36,166.25c-3.85,0-7.03,3.17-7.03,7.03v16.1c-0.11,1.96-1.9,3.49-2.66,3.77   c-7.82,2.72-15.08,6.92-21.35,12.33c-1.9,1.25-3.91,0.82-4.59,0.43l-13.75-7.94c-3.71-1.84-7.74-1.19-9.92,2.55l-11.79,20.44   c-1.81,3.66-1.25,7.71,2.47,9.84l13.72,7.94c1.56,0.77,2.49,2.52,2.15,4.31c-1.56,8.14-1.56,16.58,0,24.72   c0.34,1.79-0.6,3.54-2.15,4.31L173.73,280c-3.71,2.13-4.28,6.18-2.47,9.84l11.79,20.44c2.18,3.74,6.21,4.39,9.92,2.55l13.75-7.94   c0.68-0.4,2.69-0.82,4.59,0.43c6.26,5.41,13.52,9.61,21.35,12.33c0.77,0.28,2.55,1.81,2.66,3.77v16.1c0,3.86,3.17,7.03,7.03,7.03   h23.98c3.85,0,7.03-3.17,7.03-7.03v-16.1c0.11-1.96,1.9-3.49,2.69-3.77c7.79-2.72,15.08-6.92,21.32-12.33   c1.93-1.25,3.91-0.82,4.59-0.43l13.78,7.94c3.69,1.84,7.71,1.19,9.89-2.55l11.79-20.44c1.81-3.66,1.25-7.71-2.47-9.84l-13.72-7.94   c-1.56-0.77-2.47-2.52-2.13-4.31c1.53-8.14,1.53-16.58,0-24.72c-0.34-1.79,0.57-3.54,2.13-4.31l13.72-7.94   c3.71-2.13,4.28-6.18,2.47-9.84l-11.79-20.44c-2.18-3.74-6.21-4.39-9.89-2.55l-13.78,7.94c-0.68,0.4-2.66,0.82-4.59-0.43   c-6.24-5.41-13.52-9.61-21.32-12.33c-0.79-0.28-2.58-1.81-2.69-3.77v-16.1c0-3.86-3.17-7.03-7.03-7.03H242.36z M48.49,472.02h64.57   c6.07,0,11-4.96,11-11v-64.52c0-6.07-4.93-11-11-11H48.49c-6.07,0-11,4.93-11,11v64.52C37.5,467.06,42.43,472.02,48.49,472.02   L48.49,472.02z M395.62,125.29h64.6c6.04,0,11-4.93,11-11V49.77c0-6.04-4.96-11-11-11h-64.6c-6.04,0-11,4.96-11,11v64.52   C384.63,120.36,389.59,125.29,395.62,125.29L395.62,125.29z M456.65,458.05c18.88-18.85,18.88-49.44,0-68.29   c-18.85-18.88-49.44-18.88-68.29,0c-18.88,18.85-18.88,49.44,0,68.29C407.22,476.93,437.8,476.93,456.65,458.05L456.65,458.05z    M298.45,372.56c12.44,0,22.22,1.96,32.83,9.04c43.91-26.84,70.81-74.49,70.81-126.2v-47.2c0-20.15,24.63-30.9,39.26-16.24   c4.2,4.17,6.77,9.92,6.77,16.24v136.4c0,11.79,15.56,15.31,21.09,5.73c0.99-1.7,1.5-3.66,1.5-5.73V208.2   c0-25.11-20.49-45.61-45.61-45.61c-25.09,0-45.58,20.49-45.58,45.61v47.2C379.52,307.53,347.21,354.22,298.45,372.56L298.45,372.56   z M380.54,178.5c-26.82-43.94-74.47-70.84-126.2-70.84h-47.2c-20.15,0-30.9-24.63-16.24-39.26c4.17-4.17,9.92-6.77,16.24-6.77   h136.4c11.79,0,15.31-15.56,5.75-21.09c-1.7-0.96-3.69-1.5-5.75-1.5h-136.4c-25.11,0-45.61,20.52-45.61,45.61   s20.49,45.58,45.61,45.58h47.2c52.13,0,98.82,32.34,117.18,81.1C371.53,198.85,373.46,189.07,380.54,178.5L380.54,178.5z    M137.19,299.48c0,12.47-1.96,22.25-9.04,32.83c26.84,43.94,74.49,70.84,126.2,70.84h47.23c20.13,0,30.87,24.63,16.24,39.26   c-4.2,4.17-9.95,6.77-16.24,6.77H165.14c-11.79,0-15.28,15.56-5.73,21.09c0.6,0.34,5.73,2.21,5.73,1.5h136.43   c25.09,0,45.58-20.52,45.58-45.61s-20.49-45.58-45.58-45.58h-47.23C202.22,380.58,155.53,348.23,137.19,299.48L137.19,299.48z    M52.04,52.75c-18.88,18.85-18.88,49.44,0,68.29c18.85,18.88,49.44,18.88,68.31,0c18.85-18.85,18.85-49.44,0-68.29   C101.47,33.87,70.89,33.87,52.04,52.75L52.04,52.75z M210.27,138.24c-12.47,0-22.25-1.96-32.83-9.04   c-43.94,26.84-70.84,74.49-70.84,126.2v47.2c0,20.15-24.63,30.9-39.26,16.24c-4.17-4.17-6.77-9.92-6.77-16.24v-136.4   c0-11.79-15.53-15.31-21.06-5.73c-0.99,1.7-1.53,3.66-1.53,5.73l0.03,136.4c0,25.11,20.49,45.61,45.58,45.61   c25.11,0,45.61-20.49,45.61-45.61v-47.2C129.2,203.27,161.51,156.58,210.27,138.24L210.27,138.24z"/></g><text x="0" y="527" fill="#000000" font-size="5px" font-weight="bold" font-family="'Helvetica Neue', Helvetica, Arial-Unicode, Arial, Sans-serif">Created by Dan's</text><text x="0" y="532" fill="#000000" font-size="5px" font-weight="bold" font-family="'Helvetica Neue', Helvetica, Arial-Unicode, Arial, Sans-serif">from the Noun Project</text></svg>