<svg xmlns="http://www.w3.org/2000/svg" data-name="line" viewBox="0 0 64 80" x="0px" y="0px"><path d="M32,16.99217a6.50379,6.50379,0,0,0,6.49711-6.49605c-.30364-8.5982-12.68927-8.6004-12.99422-.00012A6.50381,6.50381,0,0,0,32,16.99217ZM32,5.45886c6.65316.21056,6.65655,9.861.00012,10.07238C25.345,15.32081,25.3453,5.67043,32,5.45886Z"/><path d="M59.27057,46.85169a.73065.73065,0,0,0-.73046.73046V58.53908H47.58324A.7306.7306,0,0,0,47.58318,60H59.27057a.73065.73065,0,0,0,.73046-.73046V47.58215A.73065.73065,0,0,0,59.27057,46.85169Z"/><path d="M16.41682,58.53908H5.45989V47.58215a.73046.73046,0,0,0-1.46092,0V59.26954A.73065.73065,0,0,0,4.72943,60H16.41682A.73061.73061,0,0,0,16.41682,58.53908Z"/><path d="M4.72943,17.06921a.73065.73065,0,0,0,.73046-.73046V5.38182H16.41682a.73046.73046,0,0,0,0-1.46092H4.72943a.73065.73065,0,0,0-.73046.73046V16.33875A.73065.73065,0,0,0,4.72943,17.06921Z"/><path d="M59.27057,3.9209H47.58318a.73046.73046,0,0,0,0,1.46092H58.54011V16.33875a.73046.73046,0,0,0,1.46092,0V4.65136A.73065.73065,0,0,0,59.27057,3.9209Z"/><path d="M59.22491,37.22348a.73064.73064,0,0,0,0-1.46092H39.19238V23.418H49.78212a2.76318,2.76318,0,0,0,.00006-5.526l-35.56436.001a2.763,2.763,0,1,0,0,5.526l10.5898-.00095V35.76256H4.776a.73046.73046,0,1,0,0,1.46092H24.80762V57.23687a2.7627,2.7627,0,0,0,5.52506.00012V43.74247h3.33464V57.237a2.76253,2.76253,0,1,0,5.52506,0V37.22348ZM25.53808,21.957l-11.3202.001a1.30222,1.30222,0,0,1-.00006-2.60418l35.5643-.00095a1.30225,1.30225,0,0,1,.00006,2.60417H38.46192a.73066.73066,0,0,0-.73046.73047V35.76256H26.26854V22.68749A.73482.73482,0,0,0,25.53808,21.957ZM37.73146,57.23693a1.30176,1.30176,0,0,1-2.60322.00006V43.012a.73065.73065,0,0,0-.73046-.73046H29.60222a.73065.73065,0,0,0-.73046.73046V57.23693a1.30175,1.30175,0,0,1-2.60322.00006V37.22348H37.73146Z"/><text x="0" y="79" fill="#000000" font-size="5px" font-weight="bold" font-family="'Helvetica Neue', Helvetica, Arial-Unicode, Arial, Sans-serif">Created by Darwin Mulya</text><text x="0" y="84" fill="#000000" font-size="5px" font-weight="bold" font-family="'Helvetica Neue', Helvetica, Arial-Unicode, Arial, Sans-serif">from the Noun Project</text></svg>