<svg id="visual" viewBox="0 0 1920 1080" width="1920" height="1080" xmlns="http://www.w3.org/2000/svg" xmlns:xlink="http://www.w3.org/1999/xlink" version="1.1"><rect x="0" y="0" width="1920" height="1080" fill="#FFFFFF"></rect><path d="M1054 1080L1057.7 1035C1061.3 990 1068.7 900 1059.8 810C1051 720 1026 630 1021.3 540C1016.7 450 1032.3 360 1068.3 270C1104.3 180 1160.7 90 1188.8 45L1217 0L1920 0L1920 45C1920 90 1920 180 1920 270C1920 360 1920 450 1920 540C1920 630 1920 720 1920 810C1920 900 1920 990 1920 1035L1920 1080Z" fill="#06104D" stroke-linecap="round" stroke-linejoin="miter"></path></svg>