<svg xmlns="http://www.w3.org/2000/svg" xmlns:xlink="http://www.w3.org/1999/xlink" version="1.1" x="0px" y="0px" viewBox="0 0 512 640" style="enable-background:new 0 0 512 512;" xml:space="preserve"><g><path d="M428.5,84.2c-46-46-107.1-71.3-172.1-71.3c-65,0-126.1,25.3-172.1,71.3c-46,46-71.3,107.1-71.3,172.1   c0,65,25.3,126.2,71.3,172.2c46,46,107.1,71.3,172.1,71.3c65,0,126.1-25.3,172.1-71.3c46-46,71.3-107.1,71.3-172.2   C499.8,191.3,474.4,130.2,428.5,84.2z M256.4,491.8c-129.8,0-235.4-105.6-235.4-235.4c0-129.8,105.6-235.4,235.4-235.4   c129.8,0,235.4,105.6,235.4,235.4C491.8,386.1,386.2,491.8,256.4,491.8z"/><path d="M256.7,102.7c-17.4,0-31.6,14.2-31.6,31.7v160c0,17.4,14.2,31.6,31.6,31.6c17.5,0,31.7-14.2,31.7-31.6v-160   C288.4,116.9,274.2,102.7,256.7,102.7z M280.4,294.3c0,13-10.6,23.6-23.7,23.6c-13,0-23.6-10.6-23.6-23.6v-160   c0-13,10.6-23.7,23.6-23.7c13,0,23.7,10.6,23.7,23.7V294.3z"/><path d="M256.2,346.2c-17.6,0-31.9,14.3-31.9,31.9c0,17.6,14.3,31.9,31.9,31.9c17.6,0,31.9-14.3,31.9-31.9   C288.1,360.5,273.8,346.2,256.2,346.2z M256.2,402c-13.2,0-23.9-10.7-23.9-23.9c0-13.2,10.7-23.9,23.9-23.9   c13.2,0,23.9,10.7,23.9,23.9C280.1,391.2,269.4,402,256.2,402z"/></g><text x="0" y="527" fill="#000000" font-size="5px" font-weight="bold" font-family="'Helvetica Neue', Helvetica, Arial-Unicode, Arial, Sans-serif">Created by ibrandify</text><text x="0" y="532" fill="#000000" font-size="5px" font-weight="bold" font-family="'Helvetica Neue', Helvetica, Arial-Unicode, Arial, Sans-serif">from the Noun Project</text></svg>