<svg xmlns="http://www.w3.org/2000/svg" viewBox="0 0 24 30" x="0px" y="0px"><defs><style>.cls-1{stroke-width:0px;}</style></defs><path class="cls-1" d="m14.75,11.5c0,.414-.336.75-.75.75h-1.25v1.25c0,.414-.336.75-.75.75s-.75-.336-.75-.75v-1.25h-1.25c-.414,0-.75-.336-.75-.75s.336-.75.75-.75h1.25v-1.25c0-.414.336-.75.75-.75s.75.336.75.75v1.25h1.25c.414,0,.75.336.75.75Zm5.193,2.185l-6.706,6.706c-.341.341-.789.512-1.237.512s-.896-.171-1.237-.512l-6.706-6.706c-2.293-2.293-2.542-5.964-.565-8.356,1.116-1.352,2.689-2.142,4.429-2.225,1.475-.061,2.929.401,4.08,1.311,1.15-.908,2.61-1.37,4.08-1.311,1.74.083,3.312.873,4.429,2.225,1.977,2.393,1.728,6.063-.565,8.356Zm-.591-7.401c-.844-1.021-2.031-1.619-3.344-1.681-1.292-.066-2.562.428-3.478,1.344-.293.293-.768.293-1.061,0-.864-.864-2.042-1.35-3.26-1.35-.073,0-.145.002-.218.006-1.312.062-2.5.659-3.344,1.681-1.489,1.804-1.283,4.589.469,6.341l6.706,6.706c.098.098.256.098.354,0l6.706-6.706c1.752-1.752,1.958-4.537.469-6.341Z"/><text x="0" y="39" fill="#000000" font-size="5px" font-weight="bold" font-family="'Helvetica Neue', Helvetica, Arial-Unicode, Arial, Sans-serif">Created by Saepul Nahwan</text><text x="0" y="44" fill="#000000" font-size="5px" font-weight="bold" font-family="'Helvetica Neue', Helvetica, Arial-Unicode, Arial, Sans-serif">from the Noun Project</text></svg>