<svg id="visual" viewBox="0 0 920 900" width="920" height="900" xmlns="http://www.w3.org/2000/svg" xmlns:xlink="http://www.w3.org/1999/xlink" version="1.1"><g transform="translate(429.1778958194541 429.03752980937503)"><path d="M206 -235.4C291.6 -173.8 402.3 -132.1 453.4 -49.3C504.4 33.4 495.8 157.3 433.5 236.3C371.3 315.3 255.4 349.3 145.6 381.1C35.8 412.8 -67.9 442.3 -148.4 411.4C-228.8 380.5 -285.9 289.2 -339.3 196.2C-392.8 103.1 -442.6 8.1 -418.9 -64.7C-395.1 -137.6 -297.8 -188.3 -215.8 -250.5C-133.7 -312.7 -66.8 -386.3 -3.3 -382.4C60.3 -378.5 120.5 -297 206 -235.4" fill="#060606"></path></g></svg>