<svg xmlns="http://www.w3.org/2000/svg" xmlns:xlink="http://www.w3.org/1999/xlink" version="1.1" x="0px" y="0px" viewBox="0 0 64 80" style="enable-background:new 0 0 64 64;" xml:space="preserve"><g><g><path d="M32,64C14.36,64,0,49.64,0,32S14.36,0,32,0s32,14.36,32,32S49.64,64,32,64z M32,4.64C16.91,4.64,4.64,16.91,4.64,32    S16.91,59.36,32,59.36S59.36,47.09,59.36,32S47.09,4.64,32,4.64z"/></g><g><g><path d="M27.43,43.66c-0.59,0-1.19-0.23-1.64-0.68l-9.55-9.55c-0.91-0.91-0.91-2.37,0-3.28c0.91-0.91,2.37-0.91,3.28,0l7.91,7.91     l17.05-17.05c0.91-0.91,2.37-0.91,3.28,0c0.91,0.91,0.91,2.37,0,3.28L29.07,42.98C28.62,43.44,28.02,43.66,27.43,43.66z"/></g></g></g><text x="0" y="79" fill="#000000" font-size="5px" font-weight="bold" font-family="'Helvetica Neue', Helvetica, Arial-Unicode, Arial, Sans-serif">Created by BinikSol</text><text x="0" y="84" fill="#000000" font-size="5px" font-weight="bold" font-family="'Helvetica Neue', Helvetica, Arial-Unicode, Arial, Sans-serif">from the Noun Project</text></svg>