<svg xmlns:dc="http://purl.org/dc/elements/1.1/" xmlns:cc="http://creativecommons.org/ns#" xmlns:rdf="http://www.w3.org/1999/02/22-rdf-syntax-ns#" xmlns:svg="http://www.w3.org/2000/svg" xmlns="http://www.w3.org/2000/svg" xmlns:sodipodi="http://sodipodi.sourceforge.net/DTD/sodipodi-0.dtd" xmlns:inkscape="http://www.inkscape.org/namespaces/inkscape" version="1.1" x="0px" y="0px" viewBox="0 0 100 125"><g transform="translate(0,-952.36218)"><path style="color:#000000;enable-background:accumulate;" d="m 49.999999,959.36216 -5.5938,3.84375 -6.6562,-1.40625 -3.7188,5.6875 -6.6562,1.25 -1.25,6.65625 -5.6875,3.71875 1.375,6.65624 -3.8125,5.5938 3.8125,5.625 -1.375,6.625 5.6875,3.7187 1.25,6.6563 6.6562,1.2812 3.7188,5.6563 6.6562,-1.375 5.5938,3.8125 5.5938,-3.8125 6.6562,1.375 3.7188,-5.6563 6.6562,-1.2812 1.25,-6.6563 5.6875,-3.7187 -1.375,-6.625 3.8125,-5.625 -3.8125,-5.5938 1.375,-6.65624 -5.6875,-3.71875 -1.25,-6.65625 -6.6562,-1.25 -3.7188,-5.6875 -6.6562,1.40625 -5.5938,-3.84375 z m 0,10 c 12.1502,0 22,9.8498 22,22.00004 0,12.1502 -9.8498,22 -22,22 -12.1502,0 -22,-9.8498 -22,-22 0,-12.15024 9.8498,-22.00004 22,-22.00004 z m 11.875,10.71875 -2.0625,2.1875 -13,13.87499 -6.8125,-6.0625 -2.25,-2 -4,4.5 2.25,1.9688 9,8 2.1875,1.9375 2,-2.125 15,-16 2.0625,-2.1875 -4.375,-4.09379 z m -38.0625,28.12499 -16.8125005,26.1563 15.0000005,-3 4,14 13.6875,-22.8125 -1.5313,0.3125 c -0.780501,0.1714 -1.650101,-0.1791 -2.0937,-0.8438 l -3.25,-4.9687 -5.8125,-1.125 c -0.783701,-0.1485 -1.445301,-0.81 -1.5938,-1.5938 l -1.125,-5.8125 -0.4687,-0.3125 z m 52.375,0 -0.4687,0.3125 -1.125,5.8125 c -0.1486,0.7838 -0.810101,1.4453 -1.5938,1.5938 l -5.8125,1.125 -3.25,4.9687 c -0.4435,0.6647 -1.313501,1.0152 -2.0937,0.8438 l -1.5313,-0.3125 13.6875,22.8125 4,-14 15.000002,3 -16.812502,-26.1563 z" fill="#000000" stroke="none" marker="none" visibility="visible" display="inline" overflow="visible"/></g><text x="0" y="115" fill="#000000" font-size="5px" font-weight="bold" font-family="'Helvetica Neue', Helvetica, Arial-Unicode, Arial, Sans-serif">Created by iconsphere</text><text x="0" y="120" fill="#000000" font-size="5px" font-weight="bold" font-family="'Helvetica Neue', Helvetica, Arial-Unicode, Arial, Sans-serif">from the Noun Project</text></svg>