<svg id="visual" viewBox="0 0 900 100" width="900" height="100" xmlns="http://www.w3.org/2000/svg" xmlns:xlink="http://www.w3.org/1999/xlink" version="1.1"><rect x="0" y="0" width="900" height="100" fill="#f2f2f2"></rect><path d="M0 28L21.5 28C43 28 86 28 128.8 25.3C171.7 22.7 214.3 17.3 257.2 15.2C300 13 343 14 385.8 15.3C428.7 16.7 471.3 18.3 514.2 18.7C557 19 600 18 642.8 17.3C685.7 16.7 728.3 16.3 771.2 18.5C814 20.7 857 25.3 878.5 27.7L900 30L900 0L878.5 0C857 0 814 0 771.2 0C728.3 0 685.7 0 642.8 0C600 0 557 0 514.2 0C471.3 0 428.7 0 385.8 0C343 0 300 0 257.2 0C214.3 0 171.7 0 128.8 0C86 0 43 0 21.5 0L0 0Z" fill="#e8e8e8" stroke-linecap="round" stroke-linejoin="miter"></path></svg>