<svg xmlns="http://www.w3.org/2000/svg" version="1.1" viewBox="-5.0 -10.0 110.0 135.0">
 <path d="m68.539 17.613c-6.9062 0-13.848 2.3359-18.555 8.1289-4.6758-5.8242-11.648-8.1602-18.52-8.1602-21.383 0-37.184 35.02 18.555 67.281v0.035157c55.699-32.266 39.898-67.32 18.52-67.285zm-40.949 22.707c-0.69922-0.69922-0.69922-1.7773 0-2.4766 4.6758-4.6758 12.277-4.6758 16.953 0 0.69922 0.69922 0.69922 1.7773 0 2.4766-0.34766 0.34766-0.80078 0.52344-1.2227 0.52344-0.41797 0-0.90625-0.17578-1.2227-0.52344-3.3125-3.3125-8.6836-3.3125-12 0-0.73047 0.69922-1.8438 0.69922-2.5078 0zm39.902 16.988c-4.8125 4.8125-11.16 7.2188-17.477 7.2188-6.3125 0-12.66-2.4062-17.477-7.2188-0.69922-0.69922-0.69922-1.7773 0-2.4766 0.69922-0.69922 1.7773-0.69922 2.4766 0 8.2656 8.2656 21.73 8.2656 30.031 0 0.69922-0.69922 1.7773-0.69922 2.4766 0 0.63281 0.69531 0.63281 1.8125-0.03125 2.4766zm4.918-16.988c-0.34766 0.34766-0.80078 0.52344-1.2227 0.52344-0.41797 0-0.90625-0.17578-1.2227-0.52344-1.6055-1.6055-3.7305-2.4766-6-2.4766-2.2656 0-4.3945 0.87109-6 2.4766-0.69922 0.69922-1.7773 0.69922-2.4766 0-0.69922-0.69922-0.69922-1.7773 0-2.4766 2.2656-2.2656 5.2656-3.5234 8.4766-3.5234 3.207 0 6.207 1.2539 8.4766 3.5234 0.66797 0.69922 0.66797 1.8125-0.03125 2.4766z"/>
<text x="0.0" y="117.5" font-size="5.0" font-weight="bold" font-family="Arbeit Regular, Helvetica, Arial-Unicode, Arial, Sans-serif" fill="#000000">Created by corpus delicti</text><text x="0.0" y="122.5" font-size="5.0" font-weight="bold" font-family="Arbeit Regular, Helvetica, Arial-Unicode, Arial, Sans-serif" fill="#000000">from Noun Project</text></svg>